<?xml version="1.0" encoding="UTF-8" standalone="no"?>
<!-- Created with Inkscape (http://www.inkscape.org/) -->

<svg
   width="210mm"
   height="297mm"
   viewBox="0 0 210 297"
   version="1.1"
   id="svg1"
   inkscape:version="1.3 (0e150ed6c4, 2023-07-21)"
   sodipodi:docname="Klawlogo.svg"
   xmlns:inkscape="http://www.inkscape.org/namespaces/inkscape"
   xmlns:sodipodi="http://sodipodi.sourceforge.net/DTD/sodipodi-0.dtd"
   xmlns="http://www.w3.org/2000/svg"
   xmlns:svg="http://www.w3.org/2000/svg">
  <sodipodi:namedview
     id="namedview1"
     pagecolor="#ffffff"
     bordercolor="#000000"
     borderopacity="0.25"
     inkscape:showpageshadow="2"
     inkscape:pageopacity="0.0"
     inkscape:pagecheckerboard="0"
     inkscape:deskcolor="#d1d1d1"
     inkscape:document-units="mm"
     inkscape:zoom="0.7402988"
     inkscape:cx="445.76595"
     inkscape:cy="522.76189"
     inkscape:window-width="1350"
     inkscape:window-height="1000"
     inkscape:window-x="262"
     inkscape:window-y="0"
     inkscape:window-maximized="0"
     inkscape:current-layer="layer1" />
  <defs
     id="defs1" />
  <g
     inkscape:label="Layer 1"
     inkscape:groupmode="layer"
     id="layer1">
    <path
       d="m 140.16318,100.98697 -7.16778,7.16776 -7.93354,-7.93354 -5.49805,5.61225 7.22712,7.22711 2.23649,-2.76556 -3.10475,-3.05838 c 0,0 -0.49056,-0.37606 -0.0959,-0.80122 0.42065,-0.43329 0.82986,0.14203 0.82986,0.14203 l 3.21256,3.21256 h 6.20447 l 3.37091,-3.32292 c 0,0 0.38254,-0.60265 0.82504,-0.17651 0.31364,0.43225 -0.0583,0.80288 -0.0583,0.80288 l -3.29603,3.20156 2.28459,2.76556 6.49134,-6.49134 z m -10.19788,9.81307 -2.23649,2.76556 5.26659,5.50708 5.21849,-5.55518 -2.2846,-2.71746 h -2.8858 l 2.09221,2.71746 -4.30465,0.024 2.0922,-2.71747 -2.90985,-0.024 z m -3.12628,3.36677 -7.83927,7.83922 5.50554,5.50554 7.73287,-7.63365 -2.32095,-2.44053 -3.3843,3.38431 c 0,0 -0.39517,0.39516 -0.76547,0.0586 -0.31212,-0.37415 0.11433,-0.80059 0.11433,-0.80059 l 3.33801,-3.33971 -2.33269,-2.57317 z"
       fill="#0f3e6c"
       fill-rule="evenodd"
       stroke="none"
       id="path1-0-4-6-5"
       style="fill:#0d375e;fill-opacity:1;stroke-width:0.978109;stroke-dasharray:none"
       sodipodi:nodetypes="cccccccccccccccccccccccccccccccccccccccccc" />
    <path
       d="m 139.03513,114.2079 -2.38079,2.57317 3.33193,3.34959 c 0.17952,0.25126 0.41735,0.60031 0.12012,0.85764 -0.2968,0.24105 -0.511,0.10669 -0.77418,-0.11856 l -3.39129,-3.39129 -2.32541,2.43607 3.32845,3.32845 1.56439,-1.56438 0.77719,0.80325 -1.55136,1.55135 0.58772,0.61985 3.27674,0.30258 2.58587,-2.44809 -0.27215,-3.39376 -0.58886,-0.6056 -1.71268,1.64839 -0.79692,-0.78353 1.71939,-1.65102 -3.47416,-3.49008 z"
       fill="#0f3e6c"
       fill-rule="evenodd"
       stroke="none"
       id="path1-0-4-6-1"
       style="fill:#1668a0;fill-opacity:1;stroke-width:0.978109;stroke-dasharray:none"
       sodipodi:nodetypes="ccccccccccccccccccccc" />
    <path
       d="m 144.69386,124.20436 2.15299,2.18549 c -1.90605,0.50417 -1.29003,0.35438 -2.97216,0.78001 l 0.81099,-2.9689 z"
       fill="#0f3e6c"
       fill-rule="evenodd"
       stroke="none"
       id="path1-0-4-3-4-4"
       style="fill:#a0161c;fill-opacity:1;stroke-width:0.180113;stroke-dasharray:none"
       sodipodi:nodetypes="ccccc"
       inkscape:transform-center-x="-0.17404539"
       inkscape:transform-center-y="-0.30680251" />
    <path
       d="m 127.75653,113.56102 2.23649,-2.76556 0.86575,2.74146 z"
       fill="#0f3e6c"
       fill-rule="evenodd"
       stroke="none"
       id="path1-0-4-3-4-4-7"
       style="fill:#1668a0;fill-opacity:1;stroke-width:0.16603;stroke-dasharray:none"
       sodipodi:nodetypes="cccc"
       inkscape:transform-center-x="-0.07644355"
       inkscape:transform-center-y="-0.38936756" />
    <path
       d="m 138.24161,113.51292 -2.2846,-2.71746 -0.79359,2.71746 z"
       fill="#0f3e6c"
       fill-rule="evenodd"
       stroke="none"
       id="path1-0-4-3-4-4-7-2"
       style="fill:#1668a0;fill-opacity:1;stroke-width:0.16603;stroke-dasharray:none"
       sodipodi:nodetypes="cccc"
       inkscape:transform-center-x="0.07644645"
       inkscape:transform-center-y="-0.38936756" />
    <path
       d="m 133.02312,119.0681 2.1403,-5.55518 -4.30465,0.024 z"
       fill="#0f3e6c"
       fill-rule="evenodd"
       stroke="none"
       id="path1-0-4-3-4-4-7-2-7"
       style="fill:#1668a0;fill-opacity:1;stroke-width:0.16603;stroke-dasharray:none"
       sodipodi:nodetypes="cccc"
       inkscape:transform-center-x="-0.02710355"
       inkscape:transform-center-y="0.19653744" />
    <path
       d="m 144.46506,119.0681 0.28579,3.34306 1.7882,-0.3384 1.52368,0.76019 0.68881,2.61622 -0.38619,0.70117 c 0.5463,0.39127 1.02326,0.86086 1.51183,1.31933 l 0.4197,-1.98095 -0.32755,-2.40919 -0.93559,-1.98825 -1.14004,-0.81433 c 0,0 -3.39345,-1.15178 -3.42864,-1.20883 z"
       style="fill:#1668a0;fill-opacity:1;fill-rule:evenodd;stroke:none;stroke-width:0.978109;stroke-dasharray:none"
       id="path1-9"
       sodipodi:nodetypes="ccccccccccccc" />
    <path
       d="m 116.4988,97.11849 10.80725,2.98375 c -5.20491,5.2412 -3.4978,3.5898 -8.12785,8.15285 z"
       fill="#0f3e6c"
       fill-rule="evenodd"
       stroke="none"
       id="path1-0-4-3-4-5"
       style="fill:#0d375e;fill-opacity:1;stroke-width:0.674788;stroke-dasharray:none"
       sodipodi:nodetypes="cccc"
       inkscape:transform-center-x="-0.55268034"
       inkscape:transform-center-y="0.72394318" />
    <path
       d="m 149.87032,97.30795 -2.98375,10.80725 c -5.2412,-5.20491 -3.5898,-3.4978 -8.15285,-8.12785 z"
       fill="#0f3e6c"
       fill-rule="evenodd"
       stroke="none"
       id="path1-0-4-3-4-5-4"
       style="fill:#0d375e;fill-opacity:1;stroke-width:0.674788;stroke-dasharray:none"
       sodipodi:nodetypes="cccc"
       inkscape:transform-center-x="0.72394466"
       inkscape:transform-center-y="0.55267818" />
    <path
       d="m 116.53447,130.06167 2.98375,-10.80725 c 5.2412,5.20491 3.5898,3.4978 8.15285,8.12785 z"
       fill="#0f3e6c"
       fill-rule="evenodd"
       stroke="none"
       id="path1-0-4-3-4-5-7"
       style="fill:#0d375e;fill-opacity:1;stroke-width:0.674788;stroke-dasharray:none"
       sodipodi:nodetypes="cccc"
       inkscape:transform-center-x="-0.72394534"
       inkscape:transform-center-y="-0.55268182" />
    <path
       d="m 138.41817,125.06192 3.34306,0.28579 -0.3384,1.7882 0.7602,1.52368 2.61622,0.68881 0.70117,-0.38619 c 0.39127,0.5463 0.86086,1.02326 1.31932,1.51183 l -1.98095,0.4197 -2.38961,-0.24182 -2.00783,-1.02132 -0.81433,-1.14004 c 0,0 -1.15178,-3.39345 -1.20883,-3.42864 z"
       style="fill:#1668a0;fill-opacity:1;fill-rule:evenodd;stroke:none;stroke-width:0.978109;stroke-dasharray:none"
       id="path1-9-8"
       sodipodi:nodetypes="ccccccccccccc" />
    <text
       xml:space="preserve"
       style="font-style:normal;font-variant:normal;font-weight:normal;font-stretch:normal;font-size:8.68735px;line-height:6.1;font-family:'Berlin Sans FB';-inkscape-font-specification:'Berlin Sans FB, Normal';font-variant-ligatures:normal;font-variant-caps:normal;font-variant-numeric:normal;font-variant-east-asian:normal;text-align:center;letter-spacing:1.02511px;text-anchor:middle;fill:#0d375e;fill-opacity:1;stroke:#0f3e6c;stroke-width:0;stroke-linecap:square;stroke-dasharray:none;stroke-opacity:1"
       x="121.01751"
       y="138.47618"
       id="text1"><tspan
         sodipodi:role="line"
         id="tspan1"
         style="font-style:normal;font-variant:normal;font-weight:bold;font-stretch:normal;font-size:8.68735px;font-family:'Bodoni MT';-inkscape-font-specification:'Bodoni MT, Bold';font-variant-ligatures:normal;font-variant-caps:normal;font-variant-numeric:normal;font-variant-east-asian:normal;fill:#0d375e;fill-opacity:1;stroke:#0f3e6c;stroke-width:0;stroke-dasharray:none;stroke-opacity:1"
         x="121.53007"
         y="138.47618">CROSS</tspan></text>
    <text
       xml:space="preserve"
       style="font-style:normal;font-variant:normal;font-weight:normal;font-stretch:normal;font-size:8.68735px;line-height:6.1;font-family:'Berlin Sans FB';-inkscape-font-specification:'Berlin Sans FB, Normal';font-variant-ligatures:normal;font-variant-caps:normal;font-variant-numeric:normal;font-variant-east-asian:normal;text-align:center;letter-spacing:1.02511px;text-anchor:middle;fill:#1668a0;fill-opacity:1;stroke:#0f3e6c;stroke-width:0;stroke-linecap:square;stroke-dasharray:none;stroke-opacity:1"
       x="150.07616"
       y="138.47406"
       id="text1-0"><tspan
         sodipodi:role="line"
         id="tspan1-4"
         style="font-style:normal;font-variant:normal;font-weight:bold;font-stretch:normal;font-size:8.68735px;font-family:'Bodoni MT';-inkscape-font-specification:'Bodoni MT, Bold';font-variant-ligatures:normal;font-variant-caps:normal;font-variant-numeric:normal;font-variant-east-asian:normal;fill:#1668a0;fill-opacity:1;stroke:#0f3e6c;stroke-width:0;stroke-dasharray:none;stroke-opacity:1"
         x="150.58871"
         y="138.47406">KLAW</tspan></text>
    <path
       d="m 51.00411,100.9914 -7.16778,7.16776 -7.933546,-7.93354 -5.49805,5.61225 7.227123,7.22711 2.236493,-2.76556 -3.104753,-3.05838 c 0,0 -0.49056,-0.37606 -0.0959,-0.80122 0.42065,-0.43329 0.82986,0.14203 0.82986,0.14203 l 3.212563,3.21256 h 6.20447 l 3.37091,-3.32292 c 0,0 0.38254,-0.60265 0.82504,-0.17651 0.31364,0.43225 -0.0583,0.80288 -0.0583,0.80288 l -3.29603,3.20156 2.28459,2.76556 6.49134,-6.49134 z m -12.43437,12.57863 10.48508,-0.0481 h -3.07819 l -4.30465,0.024 z m -0.88979,0.60121 -7.839276,7.83922 5.50554,5.50554 7.732876,-7.63365 -2.32095,-2.44053 -3.384303,3.38431 c 0,0 -0.39517,0.39516 -0.76547,0.0586 -0.31212,-0.37415 0.11433,-0.80059 0.11433,-0.80059 l 3.338013,-3.33971 -2.33269,-2.57317 z"
       fill="#0f3e6c"
       fill-rule="evenodd"
       stroke="none"
       id="path1-0-4-6-5-6"
       style="fill:#0d375e;fill-opacity:1;stroke-width:0.978109;stroke-dasharray:none"
       sodipodi:nodetypes="cccccccccccccccccccccccccccccccccc" />
    <path
       d="m 49.87606,114.21233 -2.38079,2.57317 3.33193,3.34959 c 0.17952,0.25126 0.41735,0.60031 0.12012,0.85764 -0.2968,0.24105 -0.511,0.10669 -0.77418,-0.11856 l -3.39129,-3.39129 -2.32541,2.43607 3.32845,3.32845 1.56439,-1.56438 0.77719,0.80325 -1.55136,1.55135 0.58772,0.61985 3.27674,0.30258 2.58587,-2.44809 -0.27215,-3.39376 -0.58886,-0.6056 -1.71268,1.64839 -0.79692,-0.78353 1.71939,-1.65102 -3.47416,-3.49008 z"
       fill="#0f3e6c"
       fill-rule="evenodd"
       stroke="none"
       id="path1-0-4-6-1-9"
       style="fill:#1668a0;fill-opacity:1;stroke-width:0.978109;stroke-dasharray:none"
       sodipodi:nodetypes="ccccccccccccccccccccc" />
    <path
       d="m 55.53479,124.20879 2.15299,2.18549 c -1.90605,0.50417 -1.29003,0.35438 -2.97216,0.78001 l 0.81099,-2.9689 z"
       fill="#0f3e6c"
       fill-rule="evenodd"
       stroke="none"
       id="path1-0-4-3-4-4-0"
       style="fill:#a0161c;fill-opacity:1;stroke-width:0.180113;stroke-dasharray:none"
       sodipodi:nodetypes="ccccc"
       inkscape:transform-center-x="-0.17404539"
       inkscape:transform-center-y="-0.30680251" />
    <path
       d="m 38.59746,113.56545 2.23649,-2.76556 0.86575,2.74146 z"
       fill="#0f3e6c"
       fill-rule="evenodd"
       stroke="none"
       id="path1-0-4-3-4-4-7-9"
       style="fill:#1668a0;fill-opacity:1;stroke-width:0.16603;stroke-dasharray:none"
       sodipodi:nodetypes="cccc"
       inkscape:transform-center-x="-0.07644355"
       inkscape:transform-center-y="-0.38936756" />
    <path
       d="m 49.08254,113.51735 -2.2846,-2.71746 -0.79359,2.71746 z"
       fill="#0f3e6c"
       fill-rule="evenodd"
       stroke="none"
       id="path1-0-4-3-4-4-7-2-0"
       style="fill:#1668a0;fill-opacity:1;stroke-width:0.16603;stroke-dasharray:none"
       sodipodi:nodetypes="cccc"
       inkscape:transform-center-x="0.07644645"
       inkscape:transform-center-y="-0.38936756" />
    <path
       d="m 43.86405,119.07253 2.1403,-5.55518 -4.30465,0.024 z"
       fill="#0f3e6c"
       fill-rule="evenodd"
       stroke="none"
       id="path1-0-4-3-4-4-7-2-7-0"
       style="fill:#1668a0;fill-opacity:1;stroke-width:0.16603;stroke-dasharray:none"
       sodipodi:nodetypes="cccc"
       inkscape:transform-center-x="-0.02710355"
       inkscape:transform-center-y="0.19653744" />
    <path
       d="m 55.30599,119.07253 0.28579,3.34306 1.7882,-0.3384 1.52368,0.76019 0.68881,2.61622 -0.38619,0.70117 c 0.5463,0.39127 1.02326,0.86086 1.51183,1.31933 l 0.4197,-1.98095 -0.32755,-2.40919 -0.93559,-1.98825 -1.14004,-0.81433 c 0,0 -3.39345,-1.15178 -3.42864,-1.20883 z"
       style="fill:#1668a0;fill-opacity:1;fill-rule:evenodd;stroke:none;stroke-width:0.978109;stroke-dasharray:none"
       id="path1-9-6"
       sodipodi:nodetypes="ccccccccccccc" />
    <path
       d="m 27.33973,97.122919 10.80725,2.983751 c -5.20491,5.2412 -3.4978,3.5898 -8.12785,8.15285 z"
       fill="#0f3e6c"
       fill-rule="evenodd"
       stroke="none"
       id="path1-0-4-3-4-5-0"
       style="fill:#0d375e;fill-opacity:1;stroke-width:0.674788;stroke-dasharray:none"
       sodipodi:nodetypes="cccc"
       inkscape:transform-center-x="-0.55268034"
       inkscape:transform-center-y="0.72394318" />
    <path
       d="M 60.71125,97.312379 57.7275,108.11963 c -5.2412,-5.20491 -3.5898,-3.4978 -8.15285,-8.127851 z"
       fill="#0f3e6c"
       fill-rule="evenodd"
       stroke="none"
       id="path1-0-4-3-4-5-4-3"
       style="fill:#0d375e;fill-opacity:1;stroke-width:0.674788;stroke-dasharray:none"
       sodipodi:nodetypes="cccc"
       inkscape:transform-center-x="0.72394466"
       inkscape:transform-center-y="0.55267818" />
    <path
       d="m 27.3754,130.0661 2.98375,-10.80725 c 5.2412,5.20491 3.5898,3.4978 8.15285,8.12785 z"
       fill="#0f3e6c"
       fill-rule="evenodd"
       stroke="none"
       id="path1-0-4-3-4-5-7-3"
       style="fill:#0d375e;fill-opacity:1;stroke-width:0.674788;stroke-dasharray:none"
       sodipodi:nodetypes="cccc"
       inkscape:transform-center-x="-0.72394534"
       inkscape:transform-center-y="-0.55268182" />
    <path
       d="m 49.2591,125.06635 3.34306,0.28579 -0.3384,1.7882 0.7602,1.52368 2.61622,0.68881 0.70117,-0.38619 c 0.39127,0.5463 0.86086,1.02326 1.31932,1.51183 l -1.98095,0.4197 -2.38961,-0.24182 -2.00783,-1.02132 -0.81433,-1.14004 c 0,0 -1.15178,-3.39345 -1.20883,-3.42864 z"
       style="fill:#1668a0;fill-opacity:1;fill-rule:evenodd;stroke:none;stroke-width:0.978109;stroke-dasharray:none"
       id="path1-9-8-0"
       sodipodi:nodetypes="ccccccccccccc" />
    <text
       xml:space="preserve"
       style="font-style:normal;font-variant:normal;font-weight:normal;font-stretch:normal;font-size:8.68735px;line-height:6.1;font-family:'Berlin Sans FB';-inkscape-font-specification:'Berlin Sans FB, Normal';font-variant-ligatures:normal;font-variant-caps:normal;font-variant-numeric:normal;font-variant-east-asian:normal;text-align:center;letter-spacing:1.02511px;text-anchor:middle;fill:#0d375e;fill-opacity:1;stroke:#0f3e6c;stroke-width:0;stroke-linecap:square;stroke-dasharray:none;stroke-opacity:1"
       x="31.858437"
       y="138.48061"
       id="text1-7"><tspan
         sodipodi:role="line"
         id="tspan1-7"
         style="font-style:normal;font-variant:normal;font-weight:bold;font-stretch:normal;font-size:8.68735px;font-family:'Bodoni MT';-inkscape-font-specification:'Bodoni MT, Bold';font-variant-ligatures:normal;font-variant-caps:normal;font-variant-numeric:normal;font-variant-east-asian:normal;fill:#0d375e;fill-opacity:1;stroke:#0f3e6c;stroke-width:0;stroke-dasharray:none;stroke-opacity:1"
         x="32.370991"
         y="138.48061">CROSS</tspan></text>
    <text
       xml:space="preserve"
       style="font-style:normal;font-variant:normal;font-weight:normal;font-stretch:normal;font-size:8.68735px;line-height:6.1;font-family:'Berlin Sans FB';-inkscape-font-specification:'Berlin Sans FB, Normal';font-variant-ligatures:normal;font-variant-caps:normal;font-variant-numeric:normal;font-variant-east-asian:normal;text-align:center;letter-spacing:1.02511px;text-anchor:middle;fill:#1668a0;fill-opacity:1;stroke:#0f3e6c;stroke-width:0;stroke-linecap:square;stroke-dasharray:none;stroke-opacity:1"
       x="60.917084"
       y="138.47849"
       id="text1-0-2"><tspan
         sodipodi:role="line"
         id="tspan1-4-1"
         style="font-style:normal;font-variant:normal;font-weight:bold;font-stretch:normal;font-size:8.68735px;font-family:'Bodoni MT';-inkscape-font-specification:'Bodoni MT, Bold';font-variant-ligatures:normal;font-variant-caps:normal;font-variant-numeric:normal;font-variant-east-asian:normal;fill:#1668a0;fill-opacity:1;stroke:#0f3e6c;stroke-width:0;stroke-dasharray:none;stroke-opacity:1"
         x="61.429638"
         y="138.47849">KLAW</tspan></text>
    <g
       id="g4"
       transform="translate(10.522507,25.982199)">
      <path
         style="fill:none;fill-opacity:1;stroke:#0f3e6c;stroke-width:0.2;stroke-linecap:butt;stroke-linejoin:round;stroke-dasharray:none;stroke-opacity:1"
         d="m 31.177194,87.558971 -0.841697,-2.74114 -2.260542,2.76556 3.102239,-0.0244 2.164349,5.5315 2.1403,-5.5555 3.07819,2.6e-4 -2.2846,-2.71746 -0.79359,2.71714 z"
         id="path1"
         sodipodi:nodetypes="cccccccccc" />
      <path
         style="fill:none;fill-opacity:1;stroke:#0f3e6c;stroke-width:0.2;stroke-linecap:round;stroke-linejoin:bevel;stroke-dasharray:none;stroke-opacity:1"
         d="m 30.359545,84.817831 0.817649,2.74116 2.149459,-2.74316 2.15519,2.7191 0.79359,-2.7171 z"
         id="path2" />
      <path
         style="fill:none;fill-opacity:1;stroke:#0f3e6c;stroke-width:0.2;stroke-linecap:butt;stroke-linejoin:round;stroke-dasharray:none;stroke-opacity:1"
         d="m 31.177194,87.558991 -3.102239,0.0244 5.266588,5.5071 z"
         id="path3" />
      <path
         style="fill:none;fill-opacity:1;stroke:#0f3e6c;stroke-width:0.2;stroke-linecap:butt;stroke-linejoin:round;stroke-dasharray:none;stroke-opacity:1"
         d="m 35.481843,87.534991 -2.1403,5.5555 5.21849,-5.5552 z"
         id="path4" />
    </g>
    <g
       id="g4-2"
       transform="translate(99.653861,25.982199)">
      <path
         style="fill:none;fill-opacity:1;stroke:#0f3e6c;stroke-width:0.2;stroke-linecap:butt;stroke-linejoin:round;stroke-dasharray:none;stroke-opacity:1"
         d="m 31.177194,87.558971 -0.841697,-2.74114 -2.260542,2.76556 3.102239,-0.0244 2.164349,5.5315 2.1403,-5.5555 3.07819,2.6e-4 -2.2846,-2.71746 -0.79359,2.71714 z"
         id="path1-1"
         sodipodi:nodetypes="cccccccccc" />
      <path
         style="fill:none;fill-opacity:1;stroke:#0f3e6c;stroke-width:0.2;stroke-linecap:round;stroke-linejoin:bevel;stroke-dasharray:none;stroke-opacity:1"
         d="m 30.359545,84.817831 0.817649,2.74116 2.149459,-2.74316 2.15519,2.7191 0.79359,-2.7171 z"
         id="path2-5" />
      <path
         style="fill:none;fill-opacity:1;stroke:#0f3e6c;stroke-width:0.2;stroke-linecap:butt;stroke-linejoin:round;stroke-dasharray:none;stroke-opacity:1"
         d="m 31.177194,87.558991 -3.102239,0.0244 5.266588,5.5071 z"
         id="path3-8" />
      <path
         style="fill:none;fill-opacity:1;stroke:#0f3e6c;stroke-width:0.2;stroke-linecap:butt;stroke-linejoin:round;stroke-dasharray:none;stroke-opacity:1"
         d="m 35.481843,87.534991 -2.1403,5.5555 5.21849,-5.5552 z"
         id="path4-6" />
    </g>
    <path
       d="m 131.60986,180.26377 -5.54553,5.54551 -6.13798,-6.13797 -4.25369,4.34205 5.59143,5.59143 1.73032,-2.13964 -2.40207,-2.36619 c 0,0 -0.37953,-0.29095 -0.0742,-0.61988 0.32544,-0.33523 0.64204,0.10988 0.64204,0.10988 l 2.48547,2.48548 h 4.80024 l 2.60799,-2.57086 c 0,0 0.29596,-0.46626 0.63831,-0.13656 0.24265,0.33442 -0.0451,0.62116 -0.0451,0.62116 l -2.55005,2.47697 1.76753,2.13964 5.02218,-5.02218 z m -7.88984,7.59212 -1.73031,2.13965 4.07462,4.26068 4.03741,-4.2979 -1.76753,-2.10243 h -2.23267 l 1.61869,2.10243 -3.3304,0.0186 1.61868,-2.10244 -2.25128,-0.0186 z m -2.41872,2.60479 -6.06504,6.065 4.25949,4.25949 5.98272,-5.90596 -1.79566,-1.88817 -2.61834,2.61835 c 0,0 -0.30573,0.30573 -0.59223,0.0453 -0.24148,-0.28947 0.0885,-0.6194 0.0885,-0.6194 l 2.58253,-2.58384 -1.80474,-1.9908 z"
       fill="#0f3e6c"
       fill-rule="evenodd"
       stroke="none"
       id="path1-0-4-6-5-0"
       style="fill:#0d375e;fill-opacity:1;stroke-width:0.756738;stroke-dasharray:none"
       sodipodi:nodetypes="cccccccccccccccccccccccccccccccccccccccccc"
       inkscape:export-filename="klawlogosml.png"
       inkscape:export-xdpi="96"
       inkscape:export-ydpi="96" />
    <path
       d="m 130.73711,190.49247 -1.84195,1.99079 2.57783,2.59149 c 0.13889,0.1944 0.32289,0.46445 0.0929,0.66354 -0.22963,0.18649 -0.39535,0.0825 -0.59896,-0.0917 l -2.62376,-2.62375 -1.79911,1.88472 2.57514,2.57514 1.21033,-1.21032 0.60129,0.62145 -1.20025,1.20024 0.45471,0.47956 2.53513,0.2341 2.00062,-1.89402 -0.21056,-2.62567 -0.45558,-0.46854 -1.32506,1.27532 -0.61656,-0.6062 1.33025,-1.27735 -2.68787,-2.70018 z"
       fill="#0f3e6c"
       fill-rule="evenodd"
       stroke="none"
       id="path1-0-4-6-1-1"
       style="fill:#1668a0;fill-opacity:1;stroke-width:0.756738;stroke-dasharray:none"
       sodipodi:nodetypes="ccccccccccccccccccccc" />
    <path
       d="m 135.11513,198.22647 1.66571,1.69086 c -1.47466,0.39006 -0.99806,0.27417 -2.29948,0.60347 l 0.62744,-2.29696 z"
       fill="#0f3e6c"
       fill-rule="evenodd"
       stroke="none"
       id="path1-0-4-3-4-4-08"
       style="fill:#a0161c;fill-opacity:1;stroke-width:0.139349;stroke-dasharray:none"
       sodipodi:nodetypes="ccccc"
       inkscape:transform-center-x="-0.13465583"
       inkscape:transform-center-y="-0.23736513" />
    <path
       d="m 122.01115,189.99199 1.73032,-2.13964 0.6698,2.121 z"
       fill="#0f3e6c"
       fill-rule="evenodd"
       stroke="none"
       id="path1-0-4-3-4-4-7-0"
       style="fill:#1668a0;fill-opacity:1;stroke-width:0.128453;stroke-dasharray:none"
       sodipodi:nodetypes="cccc"
       inkscape:transform-center-x="-0.059139106"
       inkscape:transform-center-y="-0.30124418" />
    <path
       d="m 130.12319,189.95478 -1.76754,-2.10243 -0.61398,2.10243 z"
       fill="#0f3e6c"
       fill-rule="evenodd"
       stroke="none"
       id="path1-0-4-3-4-4-7-2-6"
       style="fill:#1668a0;fill-opacity:1;stroke-width:0.128453;stroke-dasharray:none"
       sodipodi:nodetypes="cccc"
       inkscape:transform-center-x="0.059144457"
       inkscape:transform-center-y="-0.30124232" />
    <path
       d="m 126.08578,194.25268 1.65589,-4.2979 -3.3304,0.0186 z"
       fill="#0f3e6c"
       fill-rule="evenodd"
       stroke="none"
       id="path1-0-4-3-4-4-7-2-7-9"
       style="fill:#1668a0;fill-opacity:1;stroke-width:0.128453;stroke-dasharray:none"
       sodipodi:nodetypes="cccc"
       inkscape:transform-center-x="-0.020966048"
       inkscape:transform-center-y="0.15205808" />
    <path
       d="m 134.93811,194.25268 0.22111,2.58644 1.38348,-0.26181 1.17884,0.58814 0.53291,2.0241 -0.29879,0.54247 c 0.42266,0.30272 0.79167,0.66603 1.16967,1.02074 l 0.32471,-1.53261 -0.25342,-1.86393 -0.72384,-1.53826 -0.88202,-0.63003 c 0,0 -2.62542,-0.8911 -2.65265,-0.93524 z"
       style="fill:#1668a0;fill-opacity:1;fill-rule:evenodd;stroke:none;stroke-width:0.756738;stroke-dasharray:none"
       id="path1-9-2"
       sodipodi:nodetypes="ccccccccccccc" />
    <path
       d="m 113.30134,177.27083 8.36129,2.30845 c -4.02691,4.05498 -2.70616,2.77734 -6.28831,6.30765 z"
       fill="#0f3e6c"
       fill-rule="evenodd"
       stroke="none"
       id="path1-0-4-3-4-5-6"
       style="fill:#0d375e;fill-opacity:1;stroke-width:0.522066;stroke-dasharray:none"
       sodipodi:nodetypes="cccc"
       inkscape:transform-center-x="-0.42759801"
       inkscape:transform-center-y="0.56009595" />
    <path
       d="m 139.12002,177.41741 -2.30845,8.36129 c -4.05498,-4.0269 -2.77734,-2.70616 -6.30765,-6.28831 z"
       fill="#0f3e6c"
       fill-rule="evenodd"
       stroke="none"
       id="path1-0-4-3-4-5-4-0"
       style="fill:#0d375e;fill-opacity:1;stroke-width:0.522066;stroke-dasharray:none"
       sodipodi:nodetypes="cccc"
       inkscape:transform-center-x="0.56009834"
       inkscape:transform-center-y="0.42759212" />
    <path
       d="m 113.32893,202.75812 2.30845,-8.36129 c 4.05498,4.0269 2.77734,2.70616 6.30765,6.28831 z"
       fill="#0f3e6c"
       fill-rule="evenodd"
       stroke="none"
       id="path1-0-4-3-4-5-7-1"
       style="fill:#0d375e;fill-opacity:1;stroke-width:0.522066;stroke-dasharray:none"
       sodipodi:nodetypes="cccc"
       inkscape:transform-center-x="-0.56009457"
       inkscape:transform-center-y="-0.42759478" />
    <path
       d="m 130.25979,198.88994 2.58644,0.22111 -0.26181,1.38348 0.58814,1.17884 2.02411,0.53291 0.54247,-0.29878 c 0.30272,0.42265 0.66603,0.79167 1.02073,1.16966 l -1.53261,0.32471 -1.84878,-0.18709 -1.55341,-0.79017 -0.63003,-0.88202 c 0,0 -0.8911,-2.62542 -0.93524,-2.65265 z"
       style="fill:#1668a0;fill-opacity:1;fill-rule:evenodd;stroke:none;stroke-width:0.756738;stroke-dasharray:none"
       id="path1-9-8-6"
       sodipodi:nodetypes="ccccccccccccc" />
    <text
       xml:space="preserve"
       style="font-style:normal;font-variant:normal;font-weight:normal;font-stretch:normal;font-size:6.72118px;line-height:6.1;font-family:'Berlin Sans FB';-inkscape-font-specification:'Berlin Sans FB, Normal';font-variant-ligatures:normal;font-variant-caps:normal;font-variant-numeric:normal;font-variant-east-asian:normal;text-align:center;letter-spacing:0.793101px;text-anchor:middle;fill:#0d375e;fill-opacity:1;stroke:#0f3e6c;stroke-width:0;stroke-linecap:square;stroke-dasharray:none;stroke-opacity:1"
       x="116.79735"
       y="209.26822"
       id="text1-07"><tspan
         sodipodi:role="line"
         id="tspan1-3"
         style="font-style:normal;font-variant:normal;font-weight:bold;font-stretch:normal;font-size:6.72118px;font-family:'Bodoni MT';-inkscape-font-specification:'Bodoni MT, Bold';font-variant-ligatures:normal;font-variant-caps:normal;font-variant-numeric:normal;font-variant-east-asian:normal;fill:#0d375e;fill-opacity:1;stroke:#0f3e6c;stroke-width:0;stroke-dasharray:none;stroke-opacity:1"
         x="117.1939"
         y="209.26822">CROSS</tspan></text>
    <text
       xml:space="preserve"
       style="font-style:normal;font-variant:normal;font-weight:normal;font-stretch:normal;font-size:6.72118px;line-height:6.1;font-family:'Berlin Sans FB';-inkscape-font-specification:'Berlin Sans FB, Normal';font-variant-ligatures:normal;font-variant-caps:normal;font-variant-numeric:normal;font-variant-east-asian:normal;text-align:center;letter-spacing:0.793101px;text-anchor:middle;fill:#1668a0;fill-opacity:1;stroke:#0f3e6c;stroke-width:0;stroke-linecap:square;stroke-dasharray:none;stroke-opacity:1"
       x="139.27927"
       y="209.26657"
       id="text1-0-8"><tspan
         sodipodi:role="line"
         id="tspan1-4-15"
         style="font-style:normal;font-variant:normal;font-weight:bold;font-stretch:normal;font-size:6.72118px;font-family:'Bodoni MT';-inkscape-font-specification:'Bodoni MT, Bold';font-variant-ligatures:normal;font-variant-caps:normal;font-variant-numeric:normal;font-variant-east-asian:normal;fill:#1668a0;fill-opacity:1;stroke:#0f3e6c;stroke-width:0;stroke-dasharray:none;stroke-opacity:1"
         x="139.67583"
         y="209.26657">KLAW</tspan></text>
    <g
       id="g4-2-3"
       transform="matrix(0.77367423,0,0,0.77367423,100.26884,122.23452)">
      <path
         style="fill:none;fill-opacity:1;stroke:#0f3e6c;stroke-width:0.2;stroke-linecap:butt;stroke-linejoin:round;stroke-dasharray:none;stroke-opacity:1"
         d="m 31.177194,87.558971 -0.841697,-2.74114 -2.260542,2.76556 3.102239,-0.0244 2.164349,5.5315 2.1403,-5.5555 3.07819,2.6e-4 -2.2846,-2.71746 -0.79359,2.71714 z"
         id="path1-1-2"
         sodipodi:nodetypes="cccccccccc" />
      <path
         style="fill:none;fill-opacity:1;stroke:#0f3e6c;stroke-width:0.2;stroke-linecap:round;stroke-linejoin:bevel;stroke-dasharray:none;stroke-opacity:1"
         d="m 30.359545,84.817831 0.817649,2.74116 2.149459,-2.74316 2.15519,2.7191 0.79359,-2.7171 z"
         id="path2-5-1" />
      <path
         style="fill:none;fill-opacity:1;stroke:#0f3e6c;stroke-width:0.2;stroke-linecap:butt;stroke-linejoin:round;stroke-dasharray:none;stroke-opacity:1"
         d="m 31.177194,87.558991 -3.102239,0.0244 5.266588,5.5071 z"
         id="path3-8-4" />
      <path
         style="fill:none;fill-opacity:1;stroke:#0f3e6c;stroke-width:0.2;stroke-linecap:butt;stroke-linejoin:round;stroke-dasharray:none;stroke-opacity:1"
         d="m 35.481843,87.534991 -2.1403,5.5555 5.21849,-5.5552 z"
         id="path4-6-7" />
    </g>
  </g>
</svg>
